<svg viewBox="0 0 16 16" fill="currentColor" xmlns="http://www.w3.org/2000/svg">
  <path d="M8 0C3.58 0 0 3.63 0 8.1c0 3.58 2.29 6.61 5.47 7.68.4.07.55-.18.55-.4v-1.4c-2.23.5-2.69-1.1-2.69-1.1-.36-.93-.89-1.18-.89-1.18-.73-.5.06-.5.06-.5.81.06 1.23.85 1.23.85.72 1.26 1.88.9 2.34.7.07-.54.28-.9.5-1.1-1.78-.2-3.65-.9-3.65-4.01 0-.9.31-1.64.81-2.22-.08-.2-.35-1 .08-2.1 0 0 .66-.22 2.18.85a7.45 7.45 0 0 1 1.98-.27c.67 0 1.35.09 1.98.27 1.52-1.07 2.18-.85 2.18-.85.43 1.1.16 1.9.08 2.1.5.58.81 1.32.81 2.22 0 3.13-1.88 3.8-3.67 4 .29.26.54.76.54 1.53v2.27c0 .22.15.48.55.4A8.13 8.13 0 0 0 16 8.1C16 3.63 12.42 0 8 0z"/>
</svg>
